<mxfile host="65bd71144e">
    <diagram id="E12KZsY5CCjiIL5FMOFu" name="Page-1">
        <mxGraphModel dx="1372" dy="802" grid="0" gridSize="10" guides="1" tooltips="1" connect="1" arrows="1" fold="1" page="1" pageScale="1" pageWidth="827" pageHeight="1169" math="0" shadow="0">
            <root>
                <mxCell id="0"/>
                <mxCell id="1" parent="0"/>
                <mxCell id="3" value="&lt;font face=&quot;Lucida Console&quot; data-font-src=&quot;https://fonts.google.com/share?selection.family=Ubuntu:ital,wght@0,300;0,400;0,500;0,700;1,300;1,400;1,500;1,700&quot;&gt;Stockage&lt;/font&gt;" style="shape=datastore;whiteSpace=wrap;html=1;" parent="1" vertex="1">
                    <mxGeometry x="148.5" y="58" width="128" height="123" as="geometry"/>
                </mxCell>
                <mxCell id="4" value="" style="verticalLabelPosition=bottom;html=1;verticalAlign=top;strokeWidth=1;align=center;outlineConnect=0;dashed=0;outlineConnect=0;shape=mxgraph.aws3d.file;aspect=fixed;strokeColor=#292929;" parent="1" vertex="1">
                    <mxGeometry x="111.5" y="379" width="43.62" height="100" as="geometry"/>
                </mxCell>
                <mxCell id="6" value="&lt;font style=&quot;font-size: 12px;&quot;&gt;Fichier original&lt;br style=&quot;font-size: 12px;&quot;&gt;&lt;/font&gt;" style="text;html=1;align=center;verticalAlign=middle;resizable=0;points=[];autosize=1;strokeColor=none;fillColor=none;fontSize=12;fontFamily=Lucida Console;fontStyle=0" parent="1" vertex="1">
                    <mxGeometry x="72" y="488" width="134" height="26" as="geometry"/>
                </mxCell>
                <mxCell id="13" style="edgeStyle=orthogonalEdgeStyle;html=1;exitX=0;exitY=0.5;exitDx=0;exitDy=0;fontSize=16;endArrow=none;endFill=0;startArrow=classic;startFill=1;" parent="1" source="8" edge="1">
                    <mxGeometry relative="1" as="geometry">
                        <mxPoint x="102" y="432" as="targetPoint"/>
                        <Array as="points">
                            <mxPoint x="82" y="268"/>
                            <mxPoint x="82" y="435"/>
                            <mxPoint x="102" y="435"/>
                        </Array>
                    </mxGeometry>
                </mxCell>
                <mxCell id="16" style="edgeStyle=orthogonalEdgeStyle;html=1;exitX=1;exitY=0.5;exitDx=0;exitDy=0;entryX=1;entryY=0.195;entryDx=0;entryDy=0;entryPerimeter=0;fontFamily=Garamond;fontSize=16;startArrow=none;startFill=0;endArrow=classic;endFill=1;" parent="1" source="8" target="3" edge="1">
                    <mxGeometry relative="1" as="geometry">
                        <Array as="points">
                            <mxPoint x="305.5" y="268"/>
                            <mxPoint x="305.5" y="82"/>
                        </Array>
                    </mxGeometry>
                </mxCell>
                <mxCell id="8" value="&lt;font style=&quot;font-size: 14px;&quot;&gt;Inode&lt;/font&gt;" style="swimlane;whiteSpace=wrap;html=1;fontSize=16;fontFamily=Lucida Console;" parent="1" vertex="1">
                    <mxGeometry x="165" y="215" width="95" height="105" as="geometry"/>
                </mxCell>
                <mxCell id="15" value="Pointer" style="text;html=1;align=center;verticalAlign=middle;resizable=0;points=[];autosize=1;strokeColor=none;fillColor=none;fontSize=12;fontFamily=Lucida Console;fontStyle=0" parent="8" vertex="1">
                    <mxGeometry x="13.5" y="41" width="69" height="26" as="geometry"/>
                </mxCell>
                <mxCell id="9" value="" style="verticalLabelPosition=bottom;html=1;verticalAlign=top;strokeWidth=1;align=center;outlineConnect=0;dashed=0;outlineConnect=0;shape=mxgraph.aws3d.file;aspect=fixed;strokeColor=#292929;" parent="1" vertex="1">
                    <mxGeometry x="289.5" y="383" width="43.62" height="100" as="geometry"/>
                </mxCell>
                <mxCell id="10" value="&lt;font style=&quot;font-size: 12px;&quot;&gt;Lien symbolique&lt;br style=&quot;font-size: 12px;&quot;&gt;&lt;/font&gt;" style="text;html=1;align=center;verticalAlign=middle;resizable=0;points=[];autosize=1;strokeColor=none;fillColor=none;fontSize=12;fontFamily=Lucida Console;fontStyle=0" parent="1" vertex="1">
                    <mxGeometry x="252.5" y="488" width="126" height="26" as="geometry"/>
                </mxCell>
                <mxCell id="11" value="" style="endArrow=classic;html=1;fontSize=16;dashed=1;" parent="1" edge="1">
                    <mxGeometry width="50" height="50" relative="1" as="geometry">
                        <mxPoint x="270" y="436" as="sourcePoint"/>
                        <mxPoint x="164.5" y="438" as="targetPoint"/>
                    </mxGeometry>
                </mxCell>
                <mxCell id="17" value="&lt;font face=&quot;Lucida Console&quot; data-font-src=&quot;https://fonts.google.com/share?selection.family=Ubuntu:ital,wght@0,300;0,400;0,500;0,700;1,300;1,400;1,500;1,700&quot;&gt;Stockage&lt;/font&gt;" style="shape=datastore;whiteSpace=wrap;html=1;" parent="1" vertex="1">
                    <mxGeometry x="542.5" y="55" width="128" height="123" as="geometry"/>
                </mxCell>
                <mxCell id="18" value="" style="verticalLabelPosition=bottom;html=1;verticalAlign=top;strokeWidth=1;align=center;outlineConnect=0;dashed=0;outlineConnect=0;shape=mxgraph.aws3d.file;aspect=fixed;strokeColor=#292929;" parent="1" vertex="1">
                    <mxGeometry x="493.5" y="376" width="43.62" height="100" as="geometry"/>
                </mxCell>
                <mxCell id="19" value="&lt;font style=&quot;font-size: 12px;&quot;&gt;Fichier original&lt;br style=&quot;font-size: 12px;&quot;&gt;&lt;/font&gt;" style="text;html=1;align=center;verticalAlign=middle;resizable=0;points=[];autosize=1;strokeColor=none;fillColor=none;fontSize=12;fontFamily=Lucida Console;fontStyle=0" parent="1" vertex="1">
                    <mxGeometry x="454" y="485" width="134" height="26" as="geometry"/>
                </mxCell>
                <mxCell id="20" style="edgeStyle=orthogonalEdgeStyle;html=1;fontSize=16;endArrow=none;endFill=0;startArrow=classic;startFill=1;exitX=0.25;exitY=1;exitDx=0;exitDy=0;" parent="1" source="22" edge="1">
                    <mxGeometry relative="1" as="geometry">
                        <mxPoint x="487" y="434" as="targetPoint"/>
                        <Array as="points">
                            <mxPoint x="583" y="347"/>
                            <mxPoint x="466" y="347"/>
                            <mxPoint x="466" y="432"/>
                            <mxPoint x="487" y="432"/>
                        </Array>
                        <mxPoint x="589" y="317" as="sourcePoint"/>
                    </mxGeometry>
                </mxCell>
                <mxCell id="21" style="edgeStyle=orthogonalEdgeStyle;html=1;exitX=1;exitY=0.5;exitDx=0;exitDy=0;entryX=1;entryY=0.195;entryDx=0;entryDy=0;entryPerimeter=0;fontFamily=Garamond;fontSize=16;startArrow=none;startFill=0;endArrow=classic;endFill=1;" parent="1" source="22" target="17" edge="1">
                    <mxGeometry relative="1" as="geometry">
                        <Array as="points">
                            <mxPoint x="699.5" y="265"/>
                            <mxPoint x="699.5" y="79"/>
                        </Array>
                    </mxGeometry>
                </mxCell>
                <mxCell id="22" value="&lt;font style=&quot;font-size: 14px;&quot;&gt;Inode&lt;/font&gt;" style="swimlane;whiteSpace=wrap;html=1;fontSize=16;fontFamily=Lucida Console;" parent="1" vertex="1">
                    <mxGeometry x="559" y="212" width="95" height="105" as="geometry"/>
                </mxCell>
                <mxCell id="23" value="Pointer" style="text;html=1;align=center;verticalAlign=middle;resizable=0;points=[];autosize=1;strokeColor=none;fillColor=none;fontSize=12;fontFamily=Lucida Console;fontStyle=0" parent="22" vertex="1">
                    <mxGeometry x="13.5" y="41" width="69" height="26" as="geometry"/>
                </mxCell>
                <mxCell id="24" value="" style="verticalLabelPosition=bottom;html=1;verticalAlign=top;strokeWidth=1;align=center;outlineConnect=0;dashed=0;outlineConnect=0;shape=mxgraph.aws3d.file;aspect=fixed;strokeColor=#292929;" parent="1" vertex="1">
                    <mxGeometry x="673.5" y="380" width="43.62" height="100" as="geometry"/>
                </mxCell>
                <mxCell id="25" value="&lt;font style=&quot;font-size: 12px;&quot;&gt;Lien physique&lt;br style=&quot;font-size: 12px;&quot;&gt;&lt;/font&gt;" style="text;html=1;align=center;verticalAlign=middle;resizable=0;points=[];autosize=1;strokeColor=none;fillColor=none;fontSize=12;fontFamily=Lucida Console;fontStyle=0" parent="1" vertex="1">
                    <mxGeometry x="643.5" y="485" width="112" height="26" as="geometry"/>
                </mxCell>
                <mxCell id="28" style="edgeStyle=orthogonalEdgeStyle;html=1;fontSize=16;endArrow=none;endFill=0;startArrow=classic;startFill=1;exitX=0.75;exitY=1;exitDx=0;exitDy=0;" parent="1" source="22" edge="1">
                    <mxGeometry relative="1" as="geometry">
                        <mxPoint x="719.5" y="432" as="targetPoint"/>
                        <Array as="points">
                            <mxPoint x="630" y="347"/>
                            <mxPoint x="739" y="347"/>
                            <mxPoint x="739" y="432"/>
                        </Array>
                        <mxPoint x="610" y="326" as="sourcePoint"/>
                    </mxGeometry>
                </mxCell>
                <mxCell id="29" value="&lt;font face=&quot;Lucida Console&quot; data-font-src=&quot;https://fonts.google.com/share?selection.family=Ubuntu:ital,wght@0,300;0,400;0,500;0,700;1,300;1,400;1,500;1,700&quot;&gt;Stockage&lt;/font&gt;" style="shape=datastore;whiteSpace=wrap;html=1;" parent="1" vertex="1">
                    <mxGeometry x="343.5" y="596" width="128" height="123" as="geometry"/>
                </mxCell>
                <mxCell id="30" value="" style="verticalLabelPosition=bottom;html=1;verticalAlign=top;strokeWidth=1;align=center;outlineConnect=0;dashed=0;outlineConnect=0;shape=mxgraph.aws3d.file;aspect=fixed;strokeColor=#292929;" parent="1" vertex="1">
                    <mxGeometry x="294.5" y="917" width="43.62" height="100" as="geometry"/>
                </mxCell>
                <mxCell id="31" value="&lt;font style=&quot;font-size: 12px;&quot;&gt;Fichier original&lt;br style=&quot;font-size: 12px;&quot;&gt;&lt;/font&gt;" style="text;html=1;align=center;verticalAlign=middle;resizable=0;points=[];autosize=1;strokeColor=none;fillColor=none;fontSize=12;fontFamily=Lucida Console;fontStyle=0" parent="1" vertex="1">
                    <mxGeometry x="255" y="1028" width="134" height="26" as="geometry"/>
                </mxCell>
                <mxCell id="32" style="edgeStyle=orthogonalEdgeStyle;html=1;fontSize=16;endArrow=none;endFill=0;startArrow=classic;startFill=1;exitX=0;exitY=0.5;exitDx=0;exitDy=0;" parent="1" source="34" edge="1">
                    <mxGeometry relative="1" as="geometry">
                        <mxPoint x="288" y="975" as="targetPoint"/>
                        <Array as="points">
                            <mxPoint x="267" y="812"/>
                            <mxPoint x="267" y="973"/>
                            <mxPoint x="288" y="973"/>
                        </Array>
                        <mxPoint x="390" y="858" as="sourcePoint"/>
                    </mxGeometry>
                </mxCell>
                <mxCell id="42" style="edgeStyle=orthogonalEdgeStyle;html=1;exitX=0.5;exitY=0;exitDx=0;exitDy=0;entryX=0.003;entryY=0.445;entryDx=0;entryDy=0;entryPerimeter=0;fontFamily=Lucida Console;fontSize=14;startArrow=none;startFill=0;endArrow=classic;endFill=1;" parent="1" source="34" target="29" edge="1">
                    <mxGeometry relative="1" as="geometry">
                        <Array as="points">
                            <mxPoint x="349" y="739"/>
                            <mxPoint x="324" y="739"/>
                            <mxPoint x="324" y="651"/>
                        </Array>
                    </mxGeometry>
                </mxCell>
                <mxCell id="34" value="&lt;font style=&quot;font-size: 14px;&quot;&gt;Inode&lt;/font&gt;" style="swimlane;whiteSpace=wrap;html=1;fontSize=16;fontFamily=Lucida Console;" parent="1" vertex="1">
                    <mxGeometry x="302" y="759" width="95" height="105" as="geometry"/>
                </mxCell>
                <mxCell id="35" value="Pointer" style="text;html=1;align=center;verticalAlign=middle;resizable=0;points=[];autosize=1;strokeColor=none;fillColor=none;fontSize=12;fontFamily=Lucida Console;fontStyle=0" parent="34" vertex="1">
                    <mxGeometry x="13.5" y="41" width="69" height="26" as="geometry"/>
                </mxCell>
                <mxCell id="36" value="" style="verticalLabelPosition=bottom;html=1;verticalAlign=top;strokeWidth=1;align=center;outlineConnect=0;dashed=0;outlineConnect=0;shape=mxgraph.aws3d.file;aspect=fixed;strokeColor=#292929;" parent="1" vertex="1">
                    <mxGeometry x="474.5" y="921" width="43.62" height="100" as="geometry"/>
                </mxCell>
                <mxCell id="37" value="&lt;font style=&quot;font-size: 12px;&quot;&gt;Copie du &lt;br&gt;fichier original&lt;br style=&quot;font-size: 12px;&quot;&gt;&lt;/font&gt;" style="text;html=1;align=center;verticalAlign=middle;resizable=0;points=[];autosize=1;strokeColor=none;fillColor=none;fontSize=12;fontFamily=Lucida Console;fontStyle=0" parent="1" vertex="1">
                    <mxGeometry x="437.5" y="1024" width="134" height="41" as="geometry"/>
                </mxCell>
                <mxCell id="38" style="edgeStyle=orthogonalEdgeStyle;html=1;fontSize=16;endArrow=none;endFill=0;startArrow=classic;startFill=1;exitX=1;exitY=0.5;exitDx=0;exitDy=0;" parent="1" source="39" edge="1">
                    <mxGeometry relative="1" as="geometry">
                        <mxPoint x="520.5" y="973" as="targetPoint"/>
                        <Array as="points">
                            <mxPoint x="540" y="812"/>
                            <mxPoint x="540" y="973"/>
                        </Array>
                        <mxPoint x="411" y="867" as="sourcePoint"/>
                    </mxGeometry>
                </mxCell>
                <mxCell id="41" style="edgeStyle=orthogonalEdgeStyle;html=1;exitX=0.5;exitY=0;exitDx=0;exitDy=0;entryX=1.005;entryY=0.193;entryDx=0;entryDy=0;entryPerimeter=0;fontFamily=Lucida Console;fontSize=14;startArrow=none;startFill=0;endArrow=classic;endFill=1;" parent="1" source="39" target="29" edge="1">
                    <mxGeometry relative="1" as="geometry">
                        <Array as="points">
                            <mxPoint x="471" y="739"/>
                            <mxPoint x="491" y="739"/>
                            <mxPoint x="491" y="620"/>
                        </Array>
                    </mxGeometry>
                </mxCell>
                <mxCell id="39" value="&lt;font style=&quot;font-size: 14px;&quot;&gt;Inode&lt;/font&gt;" style="swimlane;whiteSpace=wrap;html=1;fontSize=16;fontFamily=Lucida Console;" parent="1" vertex="1">
                    <mxGeometry x="423.12" y="759" width="95" height="105" as="geometry"/>
                </mxCell>
                <mxCell id="40" value="Pointer" style="text;html=1;align=center;verticalAlign=middle;resizable=0;points=[];autosize=1;strokeColor=none;fillColor=none;fontSize=12;fontFamily=Lucida Console;fontStyle=0" parent="39" vertex="1">
                    <mxGeometry x="13.5" y="41" width="69" height="26" as="geometry"/>
                </mxCell>
            </root>
        </mxGraphModel>
    </diagram>
</mxfile>